# xmcd
#
# Track frame offsets:
#	150
#	1803
#	14746
#	39106
#	54568
#	68690
#	87774
#	110030
#	125626
#	146984
#	163893
#	179120
#	196525
#	215267
#	228103
#	258128
#	275435
#	301160
#
# Disc length: 4049 seconds
#
# Revision: 1
# Processed by: cddbd v1.5.2PL0 Copyright (c) Steve Scherf et al.
# Submitted via: audiograbber 1.83.01
#
DISCID=f50fcf12
DTITLE=Red Hot Pokers With Geraint Watkins - I Like It Like That
DYEAR=2019
DGENRE=RnB
TTITLE0=Tell Me The Reason
TTITLE1=I'm So Lonesome
TTITLE2=Good At Being Bad
TTITLE3=Smoke That Cigarette
TTITLE4=A Fool For You
TTITLE5=You Can Stay But The Noise Must Go
TTITLE6=Knife and Fork
TTITLE7=Don't Ask Me Nothing But The Blues
TTITLE8=If The Washing Don't Get You
TTITLE9=Don't Fence Me In
TTITLE10=I Like It Like That
TTITLE11=Smoothe One
TTITLE12=I Want's To Be Loved
TTITLE13=Surfin'
TTITLE14=Mean Ole Train
TTITLE15=Ain't That A Bitch
TTITLE16=Outro
TTITLE17=Tell Me The Reason II
EXTD=
EXTT0=
EXTT1=
EXTT2=
EXTT3=
EXTT4=
EXTT5=
EXTT6=
EXTT7=
EXTT8=
EXTT9=
EXTT10=
EXTT11=
EXTT12=
EXTT13=
EXTT14=
EXTT15=
EXTT16=
EXTT17=
PLAYORDER=
